<?xml version="1.0" ?><!DOCTYPE svg  PUBLIC '-//W3C//DTD SVG 1.1//EN'  'http://www.w3.org/Graphics/SVG/1.1/DTD/svg11.dtd'><svg enable-background="new 0 0 64 64" height="64px" id="Layer_1" version="1.1" viewBox="0 0 64 64" width="64px" xml:space="preserve" xmlns="http://www.w3.org/2000/svg" xmlns:xlink="http://www.w3.org/1999/xlink"><g><g><path d="M15,20v27.208C15,49.333,16.276,51,18.463,51h2.855C21.22,51,21,51.721,21,52.075v7.706    c0,2.014,1.931,3.647,4,3.647c2.07,0,4-1.633,4-3.647v-7.706C29,51.721,28.614,51,28.519,51h6.964C35.388,51,35,51.721,35,52.075    v7.706c0,2.014,1.927,3.647,3.996,3.647c2.074,0,4.004-1.633,4.004-3.647v-7.706C43,51.721,42.781,51,42.683,51h2.859    C47.729,51,49,49.333,49,47.208V20H14.771H15z" fill="#57C927"/><path d="M8,20.443c-2.071,0-4,1.634-4,3.647v15.615c0,2.014,1.929,3.647,4,3.647c2.07,0,4-1.633,4-3.647V24.091    C12,22.077,10.07,20.443,8,20.443z" fill="#57C927"/><path d="M40.609,5.828l0.698-1.024l0.699-1.012l1.557-2.275c0.195-0.282,0.114-0.658-0.173-0.843    c-0.284-0.189-0.677-0.11-0.863,0.17L40.15,4.307L39.435,5.35C37.176,4.496,34.659,4.02,32,4.02c-2.653,0-5.175,0.477-7.434,1.33    l-0.711-1.042l-0.703-1.023l-1.67-2.439c-0.193-0.281-0.581-0.355-0.869-0.17c-0.285,0.186-0.364,0.562-0.174,0.843l1.556,2.276    l0.699,1.013l0.702,1.021C18.092,8.234,14.503,13,14.503,18h34.995C49.498,13,45.91,8.234,40.609,5.828z M24.501,13.145    c-1.039,0-1.876-0.817-1.876-1.826c0-1.009,0.837-1.822,1.876-1.822c1.036,0,1.875,0.813,1.875,1.822    C26.376,12.328,25.538,13.145,24.501,13.145z M39.501,13.145c-1.038,0-1.877-0.817-1.877-1.826c0-1.009,0.839-1.822,1.877-1.822    c1.036,0,1.875,0.813,1.875,1.822C41.376,12.328,40.537,13.145,39.501,13.145z" fill="#57C927"/></g><g><path d="M8.178,28.595C6.619,28.595,5,27.124,4,24.791v14.915c0,2.014,1.929,3.647,4,3.647c2.07,0,4-1.633,4-3.647    V25.569C11,27.443,9.554,28.595,8.178,28.595z" fill="#1CB71C"/></g><path d="M56,20.443c-2.071,0-4,1.634-4,3.647v15.615c0,2.014,1.929,3.647,4,3.647c2.07,0,4-1.633,4-3.647V24.091   C60,22.077,58.07,20.443,56,20.443z" fill="#57C927"/><g><path d="M56.178,28.595c-1.559,0-3.178-1.471-4.178-3.804v14.915c0,2.014,1.929,3.647,4,3.647    c2.07,0,4-1.633,4-3.647V25.569C59,27.443,57.554,28.595,56.178,28.595z" fill="#1CB71C"/></g><path d="M32,22.988c-7.91,0-15-0.915-17-2.214v26.434C15,49.333,16.276,51,18.463,51h2.855   C21.22,51,21,51.721,21,52.075v7.706c0,2.014,1.931,3.647,4,3.647c2.07,0,4-1.633,4-3.647v-7.706C29,51.721,28.614,51,28.519,51   h6.964C35.388,51,35,51.721,35,52.075v7.706c0,2.014,1.927,3.647,3.996,3.647c2.074,0,4.004-1.633,4.004-3.647v-7.706   C43,51.721,42.781,51,42.683,51h2.859C47.729,51,49,49.333,49,47.208V20.773C47,22.072,39.911,22.988,32,22.988z" fill="#1CB71C"/><path d="M41.376,11.318c0,1.009-0.839,1.826-1.875,1.826c-1.038,0-1.877-0.817-1.877-1.826   c0-0.547,0.251-1.03,0.642-1.364c-1.977-0.33-4.08-0.511-6.266-0.511s-4.288,0.181-6.266,0.511   c0.392,0.333,0.643,0.817,0.643,1.364c0,1.009-0.839,1.826-1.875,1.826c-1.039,0-1.876-0.817-1.876-1.826   c0-0.258,0.057-0.503,0.156-0.726c-2.998,0.788-5.574,1.938-7.518,3.351C14.774,15.23,14.503,17,14.503,18h34.995   c0-1-0.271-2.769-0.76-4.055c-1.943-1.415-4.52-2.567-7.516-3.355C41.32,10.813,41.376,11.061,41.376,11.318z" fill="#1CB71C"/><path d="M32,33.423c-6.737,0-13-1.329-17-3.507v17.292C15,49.333,16.276,51,18.463,51h2.855   C21.22,51,21,51.721,21,52.075v7.706c0,2.014,1.931,3.647,4,3.647c2.07,0,4-1.633,4-3.647v-7.706C29,51.721,28.614,51,28.519,51   h6.964C35.388,51,35,51.721,35,52.075v7.706c0,2.014,1.927,3.647,3.996,3.647c2.074,0,4.004-1.633,4.004-3.647v-7.706   C43,51.721,42.781,51,42.683,51h2.859C47.729,51,49,49.333,49,47.208V29.916C45,32.095,38.737,33.423,32,33.423z" fill="#049E42"/></g></svg>