<?xml version="1.0" encoding="UTF-8" standalone="no"?>
<!-- Created with Inkscape (http://www.inkscape.org/) -->

<svg
   version="1.1"
   id="svg55"
   width="512"
   height="515"
   viewBox="0 0 512 515"
   sodipodi:docname="iphone-logo.svg"
   inkscape:version="1.2 (dc2aedaf03, 2022-05-15)"
   xmlns:inkscape="http://www.inkscape.org/namespaces/inkscape"
   xmlns:sodipodi="http://sodipodi.sourceforge.net/DTD/sodipodi-0.dtd"
   xmlns="http://www.w3.org/2000/svg"
   xmlns:svg="http://www.w3.org/2000/svg">
  <defs
     id="defs59">
    <clipPath
       clipPathUnits="userSpaceOnUse"
       id="clipPath71">
      <path
         d="M 0,792 H 612 V 0 H 0 Z"
         id="path69" />
    </clipPath>
  </defs>
  <sodipodi:namedview
     id="namedview57"
     pagecolor="#ffffff"
     bordercolor="#000000"
     borderopacity="0.25"
     inkscape:showpageshadow="2"
     inkscape:pageopacity="0.0"
     inkscape:pagecheckerboard="0"
     inkscape:deskcolor="#d1d1d1"
     showgrid="false"
     inkscape:zoom="0.52651516"
     inkscape:cx="273.4964"
     inkscape:cy="600.17266"
     inkscape:window-width="1848"
     inkscape:window-height="1003"
     inkscape:window-x="4"
     inkscape:window-y="36"
     inkscape:window-maximized="0"
     inkscape:current-layer="g63">
    <inkscape:page
       x="0"
       y="0"
       id="page61"
       width="512"
       height="515" />
  </sodipodi:namedview>
  <g
     id="g63"
     inkscape:groupmode="layer"
     inkscape:label="Page 1"
     transform="matrix(1.3333333,0,0,-1.3333333,0,1056)">
    <g
       id="g65"
       transform="matrix(1.8714061,0,0,1.8714061,-380.6497,-142.20217)">
      <g
         id="g67"
         clip-path="url(#clipPath71)">
        <g
           id="g73"
           transform="translate(322.8525,486)">
          <path
             d="m 0,0 h 14.59 c 0.175,0 0.319,-0.144 0.319,-0.319 v -1.035 c 0,-0.176 -0.144,-0.319 -0.319,-0.319 H 0 c -0.175,0 -0.319,0.143 -0.319,0.319 v 1.035 C -0.319,-0.144 -0.175,0 0,0"
             style="fill:#231f20;fill-opacity:1;fill-rule:evenodd;stroke:none"
             id="path75" />
        </g>
        <g
           id="g77"
           transform="translate(258.5947,459.7158)">
          <path
             d="M 0,0 V 7.073 C 0,7.248 0.144,7.392 0.319,7.392 H 1.06 c 0.175,0 0.318,-0.144 0.318,-0.319 L 1.378,0 c 0,-0.175 -0.143,-0.319 -0.318,-0.319 H 0.319 C 0.144,-0.319 0,-0.175 0,0"
             style="fill:#231f20;fill-opacity:1;fill-rule:evenodd;stroke:none"
             id="path79" />
        </g>
        <g
           id="g81"
           transform="translate(258.9653,442.9399)">
          <path
             d="m 0,0 -0.371,3.386 v 6.68 c 0,0.175 0.144,0.319 0.319,0.319 h 0.741 c 0.176,0 0.319,-0.144 0.319,-0.319 V 0 c 0,-0.175 -0.144,-0.318 -0.319,-0.318 H 0.318 C 0.144,-0.318 0.019,-0.174 0,0"
             style="fill:#231f20;fill-opacity:1;fill-rule:evenodd;stroke:none"
             id="path83" />
        </g>
        <g
           id="g85"
           transform="translate(258.9653,432.6504)">
          <path
             d="m 0,0 -0.371,-3.386 v -6.68 c 0,-0.175 0.144,-0.318 0.319,-0.318 h 0.741 c 0.176,0 0.319,0.143 0.319,0.318 V 0 c 0,0.175 -0.144,0.319 -0.319,0.319 H 0.318 C 0.144,0.319 0.019,0.174 0,0"
             style="fill:#231f20;fill-opacity:1;fill-rule:evenodd;stroke:none"
             id="path87" />
        </g>
        <g
           id="g89"
           transform="translate(275.8491,484.9404)">
          <path
             d="m 0,0 h 61.129 c 9.035,0 16.427,-7.392 16.427,-16.427 v -146.086 c 0,-9.035 -7.392,-16.427 -16.427,-16.427 H 0 c -9.035,0 -16.427,7.392 -16.427,16.427 V -16.427 C -16.427,-7.392 -9.035,0 0,0"
             style="fill:#231f20;fill-opacity:1;fill-rule:evenodd;stroke:none"
             id="path91" />
        </g>
        <g
           id="g93"
           transform="translate(276.0386,479.2725)">
          <path
             d="m 0,0 h 60.75 c 6.268,0 11.396,-5.128 11.396,-11.395 v -146.153 c 0,-6.267 -5.128,-11.395 -11.396,-11.395 H 0 c -6.268,0 -11.395,5.128 -11.395,11.395 V -11.395 C -11.395,-5.128 -6.268,0 0,0"
             style="fill:#231f20;fill-opacity:1;fill-rule:evenodd;stroke:none"
             id="path95" />
        </g>
        <g
           id="g97"
           transform="translate(306.3955,330.9746)">
          <path
             d="m 0,0 c 4.736,0 8.577,-3.841 8.577,-8.577 0,-4.736 -3.841,-8.576 -8.577,-8.576 -4.736,0 -8.577,3.84 -8.577,8.576 C -8.577,-3.841 -4.736,0 0,0"
             style="fill:#ffffff;fill-opacity:1;fill-rule:evenodd;stroke:none"
             id="path99" />
        </g>
        <g
           id="g101"
           transform="translate(313.2104,468.1274)">
          <path
             d="m 0,0 h -13.63 c -0.949,0 -1.725,-0.776 -1.725,-1.725 0,-0.95 0.776,-1.726 1.725,-1.726 H 0 c 0.949,0 1.726,0.776 1.726,1.726 C 1.726,-0.776 0.949,0 0,0"
             style="fill:#ffffff;fill-opacity:1;fill-rule:evenodd;stroke:none"
             id="path103" />
        </g>
        <g
           id="g105"
           transform="translate(267.9058,453.4121)">
          <path
             d="m 0,0 h 77.016 c 0.721,0 1.31,-0.59 1.31,-1.311 v -116.606 c 0,-0.72 -0.589,-1.31 -1.31,-1.31 H 0 c -0.721,0 -1.311,0.59 -1.311,1.31 V -1.311 C -1.311,-0.59 -0.721,0 0,0"
             style="fill:#ffffff;fill-opacity:1;fill-rule:evenodd;stroke:none"
             id="path107" />
        </g>
        <g
           id="g109"
           transform="translate(323.1699,415.7241)">
          <path
             d="m 0,0 c -2.267,2.194 -4.241,4.314 -8.41,4.534 -3.364,0.146 -4.9,-1.901 -8.044,-1.974 -2.925,-0.074 -2.706,2.267 -8.776,1.608 -5.265,-0.585 -9.873,-5.85 -9.507,-13.236 0.366,-7.972 5.924,-19.014 11.116,-19.014 3.656,0.073 4.534,1.828 7.533,1.828 3.729,0 4.607,-2.193 7.532,-1.755 5.046,0.731 9.799,8.703 9.799,11.262 -2.779,1.463 -5.557,3.949 -5.923,8.118 C -4.973,-4.461 -2.413,-1.828 0,0"
             style="fill:#231f20;fill-opacity:1;fill-rule:evenodd;stroke:none"
             id="path111" />
        </g>
        <g
           id="g113"
           transform="translate(305.6919,419.6733)">
          <path
             d="M 0,0 C -0.366,2.925 1.609,9.288 8.556,10.238 9.36,5.338 5.338,-0.292 0,0"
             style="fill:#231f20;fill-opacity:1;fill-rule:evenodd;stroke:none"
             id="path115" />
        </g>
        <path
           d="m 275.997,376.383 h -3.63 v -12.751 h 3.63 z m -1.83,1.653 c 1.27,0 2.066,0.944 2.066,2.125 -0.029,1.21 -0.796,2.096 -2.036,2.096 -1.24,0 -2.037,-0.886 -2.037,-2.096 0,-1.181 0.797,-2.125 2.007,-2.125 m 3.867,-14.404 h 3.601 v 6.317 c 0.324,-0.089 0.767,-0.118 1.24,-0.118 2.125,0 3.984,0.62 5.194,1.859 0.974,0.974 1.447,2.42 1.447,4.162 0,1.741 -0.65,3.188 -1.683,4.044 -1.062,0.974 -2.656,1.446 -4.899,1.446 -2.214,0 -3.779,-0.177 -4.9,-0.384 z m 3.601,14.552 c 0.265,0.059 0.767,0.118 1.475,0.118 1.83,0 2.834,-0.945 2.834,-2.568 0,-1.771 -1.181,-2.834 -3.099,-2.834 -0.532,0 -0.915,0.03 -1.21,0.089 z m 9.563,-14.552 h 3.601 v 7.556 c 0,0.295 0.03,0.65 0.118,0.856 0.266,0.738 0.856,1.417 1.8,1.417 1.358,0 1.86,-1.151 1.86,-2.804 v -7.025 h 3.631 v 7.438 c 0,3.867 -1.771,5.608 -4.074,5.608 -0.649,0 -1.328,-0.206 -1.86,-0.502 -0.589,-0.324 -1.062,-0.767 -1.445,-1.327 h -0.03 v 7.29 h -3.601 z m 18.536,-0.265 c 3.099,0 6.11,2.125 6.11,6.758 0,3.867 -2.391,6.553 -5.903,6.553 -3.749,0 -6.228,-2.627 -6.228,-6.759 0,-4.103 2.598,-6.552 5.992,-6.552 z m 0.03,2.833 c -1.506,0 -2.362,1.624 -2.362,3.808 0,1.888 0.679,3.807 2.391,3.807 1.624,0 2.302,-1.919 2.302,-3.778 0,-2.302 -0.885,-3.837 -2.302,-3.837 z m 7.349,-2.568 h 3.601 v 7.349 c 0,0.384 0.03,0.739 0.119,1.004 0.265,0.738 0.855,1.476 1.859,1.476 1.298,0 1.83,-1.122 1.83,-2.745 v -7.084 h 3.601 v 7.527 c 0,3.778 -1.771,5.519 -4.162,5.519 -1.948,0 -3.099,-1.24 -3.571,-2.066 h -0.059 l -0.178,1.771 h -3.128 c 0.029,-1.151 0.088,-2.479 0.088,-4.073 z m 23.436,5.106 c 0.059,0.325 0.118,0.915 0.118,1.594 0,3.159 -1.417,6.376 -5.165,6.376 -4.014,0 -5.874,-3.572 -5.874,-6.818 0,-4.015 2.273,-6.523 6.198,-6.523 1.565,0 3.011,0.265 4.192,0.826 l -0.473,2.686 c -0.974,-0.384 -1.947,-0.561 -3.187,-0.561 -1.683,0 -3.158,0.797 -3.276,2.45 z m -7.497,2.745 c 0.089,1.034 0.708,2.568 2.243,2.568 1.653,0 2.037,-1.623 2.037,-2.568 z"
           style="fill:#231f20;fill-opacity:1;fill-rule:evenodd;stroke:none"
           id="path117" />
      </g>
    </g>
  </g>
</svg>
